# AST/ASF file generated using VICON BodyLanguage
# -----------------------------------------------
:version 1.10
:name VICON
:units
  mass 1.0
  length 0.45
  angle deg
:documentation
   .ast/.asf automatically generated from VICON data using
   VICON BodyBuilder and BodyLanguage model FoxedUp or BRILLIANT.MOD
:root
   order TX TY TZ RX RY RZ
   axis XYZ
   position 0 0 0  
   orientation 0 0 0 
:bonedata
  begin
     id 1 
     name lhipjoint
     direction 0.624716 -0.669793 0.401383 
     length 2.38238 
     axis 0 0 0  XYZ
  end
  begin
     id 2 
     name lfemur
     direction 0.34202 -0.939693 0  
     length 6.4574  
     axis 0 0 20  XYZ
    dof rx ry rz
    limits (-160.0 20.0)
           (-70.0 70.0)
           (-60.0 70.0)
  end
  begin
     id 3 
     name ltibia
     direction 0.34202 -0.939693 0   
     length 7.68739   
     axis 0 0 20   XYZ
    dof rx
    limits (-10.0 170.0)
  end
  begin
     id 4 
     name lfoot
     direction 0.0681309 -0.187188 0.979959   
     length 2.46615   
     axis -90 7.62852e-016 20   XYZ
    dof rx rz
    limits (-45.0 90.0)
           (-70.0 20.0)
  end
  begin
     id 5 
     name ltoes
     direction 1.53566e-011 -4.21819e-011 1   
     length 1.2376   
     axis -90 7.62852e-016 20   XYZ
    dof rx
    limits (-90.0 20.0)
  end
  begin
     id 6 
     name rhipjoint
     direction -0.644473 -0.655875 0.393043   
     length 2.43293  
     axis 0 0 0  XYZ 
  end
  begin
     id 7 
     name rfemur
     direction -0.34202 -0.939693 0   
     length 6.7025   
     axis 0 0 -20   XYZ
    dof rx ry rz
    limits (-160.0 20.0)
           (-70.0 70.0)
           (-70.0 60.0)
  end
  begin
     id 8 
     name rtibia
     direction -0.34202 -0.939693 0   
     length 7.80547   
     axis 0 0 -20   XYZ
    dof rx
    limits (-10.0 170.0)
 end
 begin
     id 9 
     name rfoot
     direction -0.0756734 -0.207911 0.975216   
     length 2.40315  
     axis -90 -7.62852e-016 -20   XYZ
    dof rx rz
    limits (-45.0 90.0)
           (-20.0 70.0)
  end
  begin
     id 10 
     name rtoes
     direction -1.5353e-011 -4.21879e-011 1   
     length 1.20477   
     axis -90 -7.62852e-016 -20   XYZ
    dof rx
    limits (-90.0 20.0)
  end
  begin
     id 11 
     name lowerback
     direction 0.0160353 0.987463 -0.157037   
     length 2.18572   
     axis 0 0 0   XYZ
    dof rx ry rz
    limits (-20.0 45.0)
           (-30.0 30.0)
           (-30.0 30.0)
  end
  begin
     id 12 
     name upperback
     direction -0.00499661 0.999756 0.0215076   
     length 2.18016   
     axis 0 0 0   XYZ
    dof rx ry rz
    limits (-20.0 45.0)
           (-30.0 30.0)
           (-30.0 30.0)
  end
  begin
     id 13 
     name thorax
     direction -0.00921346 0.995333 0.0960619   
     length 2.24923   
     axis 0 0 0   XYZ
    dof rx ry rz
    limits (-20.0 45.0)
           (-30.0 30.0)
           (-30.0 30.0)
  end
  begin
     id 14 
     name lowerneck
     direction 0.0274184 0.991181 0.12965   
     length 1.70911   
     axis 0 0 0   XYZ
    dof rx ry rz
    limits (-20.0 45.0)
           (-30.0 30.0)
           (-30.0 30.0)
  end
  begin
     id 15 
     name upperneck
     direction 0.0015627 0.999959 -0.00893559   
     length 1.69312   
     axis 0 0 0   XYZ
    dof rx ry rz
    limits (-20.0 45.0)
           (-30.0 30.0)
           (-30.0 30.0)
  end
  begin
     id 16
     name head
     direction -0.00230242 0.999856 -0.0168327  
     length 1.80241  
     axis 0 0 0   XYZ
    dof rx ry rz
    limits (-20.0 45.0)
           (-30.0 30.0)
           (-30.0 30.0)
  end
  begin
     id 17 
     name lclavicle
     direction 0.955523 0.290741 -0.0494489  
     length 3.84275  
     axis 0 0 0   XYZ
    dof ry rz
    limits (-20.0 10.0)
           (0.0 20.0)
  end
  begin
     id 18 
     name lhumerus
     direction 1 -4.48967e-011 -3.18382e-028   
     length 5.17714   
     axis 180 -30 -90   XYZ
    dof rx ry rz
    limits (-60.0 90.0)
           (-90.0 90.0)
           (-90.0 90.0)
  end
  begin
     id 19
     name lradius
     direction 1 -4.48968e-011 -2.22911e-027   
     length 3.43679   
     axis 180 -30 -90   XYZ
    dof rx
    limits (-10.0 170.0)
  end
  begin
     id 20
     name lwrist
     direction 1 -4.48951e-011 -6.32245e-027   
     length 1.7184   
     axis 3.57107e-015 90 90   XYZ
    dof ry
    limits (-180.0 0.0)
 end
  begin
     id 21 
     name lhand
     direction 1 -4.48924e-011 -1.26431e-026   
     length 0.573117   
     axis 8.06912e-015 90 90   XYZ
    dof rx rz
    limits (-90.0 90.0)
           (-45.0 45.0)
  end
  begin
     id 22 
     name lfingers
     direction 1 -4.49001e-011 -2.52965e-026   
     length 0.462062   
     axis 1.61381e-014 90 90   XYZ
    dof rx
    limits (0.0 90.0)
  end
  begin
     id 23
     name lthumb
     direction 0.707107 -6.35008e-011 0.707107   
     length 0.663431   
     axis -90 45 -1.62303e-014   XYZ
    dof rx rz
    limits (-45.0 45.0)
           (-45.0 45.0)
  end
  begin
     id 24 
     name rclavicle
     direction -0.963917 0.256881 -0.0698287   
     length 3.73057  
     axis 0 0 0   XYZ 
    dof ry rz
    limits (-10.0 20.0)
           (-20.0 0.0)
  end
  begin
     id 25 
     name rhumerus
     direction -1 -4.48962e-011 -2.73982e-027  
     length 5.23908   
     axis 180 30 90   XYZ
    dof rx ry rz
    limits (-90.0 60.0)
           (-90.0 90.0)
           (-90.0 90.0)
  end
  begin
     id 26 
     name rradius
     direction -1 -4.48968e-011 -4.33218e-027   
     length 3.46485   
     axis 180 30 90   XYZ
    dof rx
    limits (-10.0 170.0)
  end
  begin
     id 27 
     name rwrist
     direction -1 -4.48989e-011 -6.32372e-027   
     length 1.73243   
     axis 3.57107e-015 -90 -90   XYZ
    dof ry
    limits (-180.0 0.0)
  end
  begin
     id 28
     name rhand
     direction -1 -4.48948e-011 -1.26448e-026   
     length 0.608752   
     axis 8.06912e-015 -90 -90   XYZ
    dof rx rz
    limits (-90.0 90.0)
           (-45.0 45.0)
  end
  begin
     id 29
     name rfingers
     direction -1 -4.48962e-011 -2.52913e-026   
     length 0.490792   
     axis 1.61381e-014 -90 -90   XYZ
    dof rx
    limits (0.0 90.0)
  end
  begin
     id 30
     name rthumb
     direction -0.707107 -6.34878e-011 0.707107   
     length 0.704682   
     axis -90 -45 1.62303e-014   XYZ
    dof rx rz
    limits (-45.0 45.0)
           (-45.0 45.0)
  end
:hierarchy
  begin
    root lhipjoint rhipjoint lowerback
    lhipjoint lfemur
    lfemur ltibia
    ltibia lfoot
    lfoot ltoes
    rhipjoint rfemur
    rfemur rtibia
    rtibia rfoot
    rfoot rtoes
    lowerback upperback
    upperback thorax
    thorax lowerneck lclavicle rclavicle
    lowerneck upperneck
    upperneck head
    lclavicle lhumerus
    lhumerus lradius
    lradius lwrist
    lwrist lhand lthumb
    lhand lfingers
    rclavicle rhumerus
    rhumerus rradius
    rradius rwrist
    rwrist rhand rthumb
    rhand rfingers
  end

#!OML:ASF G:\JayActor3\Patient Classification 1\Patient 1\Session 6\male.ASF
:FULLY-SPECIFIED
:DEGREES
785
root 0.114533 14.7315 -1.42443 211.928 -84.7254 -193.725
lowerback 36.7369 0.452243 -1.14158
upperback 18.0847 -2.41633 0.926773
thorax 1.66345 -2.32407 2.25866
lowerneck 8.23848 -7.79016 -1.79118
upperneck -34.0203 -7.42405 19.8011
head -11.4729 -6.74491 8.99686
rclavicle -1.66979e-014 -2.3059e-014
rhumerus -19.8969 7.5221 -81.8605
rradius 70.6661
rwrist -10.9642
rhand -24.6185 -9.12408
rfingers 7.12502
rthumb 1.88006 -39.0955
lclavicle -1.66979e-014 -2.3059e-014
lhumerus -12.8186 -4.63877 70.3185
lradius 76.1571
lwrist 23.969
lhand -21.9457 8.89314
lfingers 7.12502
lthumb 4.46118 38.8262
rfemur -65.935 -10.8665 21.1574
rtibia 73.1352
rfoot -21.9039 -11.5594
rtoes -11.2231
lfemur -61.1591 13.6534 -26.835
ltibia 65.559
lfoot -21.9215 0.871453
ltoes -1.9058
786
root 0.117641 14.7269 -1.44352 212.614 -84.7578 -194.454
lowerback 36.8354 0.404853 -1.08099
upperback 18.0741 -2.45757 0.941799
thorax 1.62123 -2.34095 2.25801
lowerneck 8.18257 -7.78707 -1.79133
upperneck -33.9722 -7.43104 19.7723
head -11.4422 -6.74028 8.97347
rclavicle 4.77083e-014 -3.57812e-015
rhumerus -19.8283 7.54849 -81.8894
rradius 70.5383
rwrist -10.983
rhand -24.6338 -9.16141
rfingers 7.12502
rthumb 1.86527 -39.133
lclavicle 4.77083e-014 -3.57812e-015
lhumerus -12.7631 -4.62434 70.3095
lradius 76.1301
lwrist 24.0476
lhand -21.9768 8.9269
lfingers 7.12502
lthumb 4.43116 38.8605
rfemur -65.799 -10.6686 21.123
rtibia 73.0461
rfoot -22.2548 -11.9084
rtoes -10.8481
lfemur -61.1569 13.5251 -26.7649
ltibia 65.637
lfoot -21.8985 1.0356
ltoes -2.07762
787
root 0.121403 14.7257 -1.46149 213.377 -84.7859 -195.262
lowerback 36.9561 0.350711 -1.0178
upperback 18.059 -2.50657 0.9512
thorax 1.56712 -2.36101 2.2533
lowerneck 8.13816 -7.7833 -1.79168
upperneck -33.947 -7.43711 19.7413
head -11.4235 -6.73672 8.95385
rclavicle -1.70955e-014 -8.15017e-015
rhumerus -19.7542 7.59079 -81.9149
rradius 70.4128
rwrist -11.0009
rhand -24.657 -9.18681
rfingers 7.12502
rthumb 1.84282 -39.1586
lclavicle -1.70955e-014 -8.15017e-015
lhumerus -12.6919 -4.59981 70.3109
lradius 76.1242
lwrist 24.1572
lhand -22.0244 8.98648
lfingers 7.12502
lthumb 4.38519 38.9211
rfemur -65.7239 -10.4819 21.0719
rtibia 73.0193
rfoot -22.4699 -12.2316
rtoes -10.5796
lfemur -61.1245 13.4012 -26.7071
ltibia 65.6675
lfoot -21.8592 1.17312
ltoes -2.21385
788
root 0.12609 14.7273 -1.47897 214.308 -84.8247 -196.225
lowerback 37.0779 0.286651 -0.955091
upperback 18.0384 -2.56587 0.961231
thorax 1.50718 -2.3855 2.25298
lowerneck 8.10671 -7.77935 -1.78852
upperneck -33.9425 -7.44285 19.7054
head -11.4165 -6.73435 8.93607
rclavicle -1.66979e-014 -2.6339e-014
rhumerus -19.6731 7.65307 -81.9316
rradius 70.2881
rwrist -11.0238
rhand -24.6757 -9.21521
rfingers 7.12502
rthumb 1.8248 -39.1871
lclavicle -1.66979e-014 -2.6339e-014
lhumerus -12.6138 -4.5695 70.3285
lradius 76.1436
lwrist 24.2766
lhand -22.1081 9.04849
lfingers 7.12502
lthumb 4.3044 38.9847
rfemur -65.698 -10.3145 21.002
rtibia 73.0297
rfoot -22.596 -12.5063
rtoes -10.3712
lfemur -61.0882 13.2838 -26.6692
ltibia 65.6568
lfoot -21.7983 1.26391
ltoes -2.30597
789
root 0.131028 14.7306 -1.49597 215.34 -84.8792 -197.276
lowerback 37.1908 0.211948 -0.889722
upperback 18.0154 -2.63537 0.975476
thorax 1.44811 -2.4146 2.25879
lowerneck 8.08169 -7.77599 -1.78209
upperneck -33.9443 -7.44936 19.667
head -11.4136 -6.73299 8.91835
rclavicle 2.8625e-014 3.47873e-015
rhumerus -19.5833 7.73755 -81.9394
rradius 70.1611
rwrist -11.0511
rhand -24.6983 -9.24051
rfingers 7.12502
rthumb 1.80298 -39.2126
lclavicle 2.8625e-014 3.47873e-015
lhumerus -12.5393 -4.53904 70.3662
lradius 76.195
lwrist 24.3938
lhand -22.2399 9.13596
lfingers 7.12502
lthumb 4.17708 39.0748
rfemur -65.6879 -10.1719 20.9242
rtibia 73.0474
rfoot -22.6744 -12.737
rtoes -10.2394
lfemur -61.0553 13.1759 -26.6439
ltibia 65.6187
lfoot -21.7189 1.32034
ltoes -2.38645
790
root 0.136097 14.735 -1.51258 216.515 -84.9587 -198.452
lowerback 37.278 0.123388 -0.818851
upperback 17.9907 -2.71691 0.996188
thorax 1.396 -2.44884 2.27169
lowerneck 8.06604 -7.77328 -1.77125
upperneck -33.9475 -7.45502 19.6301
head -11.4137 -6.73222 8.90153
rclavicle -1.74931e-014 -2.65378e-014
rhumerus -19.4825 7.84301 -81.9357
rradius 70.0239
rwrist -11.0791
rhand -24.7144 -9.26178
rfingers 7.12502
rthumb 1.78741 -39.234
lclavicle -1.74931e-014 -2.65378e-014
lhumerus -12.4756 -4.51487 70.4281
lradius 76.2803
lwrist 24.4969
lhand -22.4249 9.22742
lfingers 7.12502
lthumb 3.99846 39.1697
rfemur -65.6771 -10.0681 20.8517
rtibia 73.0475
rfoot -22.743 -12.936
rtoes -10.1588
lfemur -61.0391 13.0759 -26.6327
ltibia 65.5615
lfoot -21.6235 1.33368
ltoes -2.44705
791
root 0.140827 14.7399 -1.52882 217.712 -85.0602 -199.632
lowerback 37.3289 0.0256593 -0.742493
upperback 17.969 -2.80555 1.02508
thorax 1.35911 -2.48634 2.29143
lowerneck 8.05097 -7.77184 -1.75432
upperneck -33.9429 -7.46036 19.5977
head -11.411 -6.73235 8.88441
rclavicle -9.54166e-015 -1.95803e-014
rhumerus -19.3647 7.95515 -81.9248
rradius 69.8743
rwrist -11.0958
rhand -24.7256 -9.27916
rfingers 7.12502
rthumb 1.77656 -39.2515
lclavicle -9.54166e-015 -1.95803e-014
lhumerus -12.4259 -4.49953 70.5154
lradius 76.3998
lwrist 24.5718
lhand -22.6578 9.31615
lfingers 7.12502
lthumb 3.77353 39.2625
rfemur -65.653 -9.99758 20.8031
rtibia 73.0162
rfoot -22.8223 -13.1166
rtoes -10.1026
lfemur -61.0441 12.993 -26.6254
ltibia 65.4957
lfoot -21.5174 1.30824
ltoes -2.5195
792
root 0.145208 14.745 -1.54438 218.827 -85.1838 -200.716
lowerback 37.341 -0.0800934 -0.653854
upperback 17.9495 -2.89786 1.0608
thorax 1.33698 -2.52482 2.31191
lowerneck 8.04709 -7.7725 -1.72515
upperneck -33.9251 -7.46422 19.57
head -11.4063 -6.7331 8.86607
rclavicle 1.63003e-014 -2.68359e-015
rhumerus -19.2378 8.06326 -81.9093
rradius 69.7086
rwrist -11.0945
rhand -24.7348 -9.28522
rfingers 7.12502
rthumb 1.76765 -39.2576
lclavicle 1.63003e-014 -2.68359e-015
lhumerus -12.3974 -4.50502 70.6249
lradius 76.5516
lwrist 24.6198
lhand -22.9246 9.39209
lfingers 7.12502
lthumb 3.51591 39.3428
rfemur -65.6152 -9.96205 20.794
rtibia 72.9526
rfoot -22.9181 -13.2813
rtoes -10.0312
lfemur -61.07 12.9342 -26.6137
ltibia 65.428
lfoot -21.4026 1.24161
ltoes -2.60632
793
root 0.148903 14.7503 -1.55932 219.711 -85.3244 -201.56
lowerback 37.31 -0.187481 -0.552726
upperback 17.9337 -2.98677 1.10234
thorax 1.33232 -2.56099 2.3295
lowerneck 8.0667 -7.77332 -1.68485
upperneck -33.899 -7.46143 19.5517
head -11.4047 -6.73288 8.85006
rclavicle -4.77083e-015 -2.08724e-014
rhumerus -19.1096 8.15475 -81.8942
rradius 69.5324
rwrist -11.0705
rhand -24.7379 -9.2843
rfingers 7.12502
rthumb 1.76469 -39.2567
lclavicle -4.77083e-015 -2.08724e-014
lhumerus -12.392 -4.5367 70.7527
lradius 76.7309
lwrist 24.6342
lhand -23.2001 9.44833
lfingers 7.12502
lthumb 3.24984 39.4033
rfemur -65.5679 -9.94836 20.8333
rtibia 72.8619
rfoot -23.0243 -13.4383
rtoes -9.93261
lfemur -61.1157 12.9078 -26.5859
ltibia 65.3664
lfoot -21.283 1.12683
ltoes -2.68039
794
root 0.151993 14.7554 -1.57339 220.402 -85.4675 -202.209
lowerback 37.2485 -0.288341 -0.449137
upperback 17.9221 -3.06672 1.14733
thorax 1.34149 -2.59294 2.34551
lowerneck 8.09823 -7.77711 -1.63509
upperneck -33.8584 -7.45708 19.5433
head -11.4001 -6.73339 8.83516
rclavicle 2.38542e-015 4.14466e-014
rhumerus -18.9893 8.21542 -81.8759
rradius 69.3537
rwrist -11.0208
rhand -24.7233 -9.28896
rfingers 7.12502
rthumb 1.77876 -39.2613
lclavicle 2.38542e-015 4.14466e-014
lhumerus -12.4004 -4.60333 70.8997
lradius 76.9266
lwrist 24.6195
lhand -23.4543 9.47913
lfingers 7.12502
lthumb 3.00439 39.4377
rfemur -65.5186 -9.95386 20.9063
rtibia 72.7578
rfoot -23.1345 -13.5812
rtoes -9.79461
lfemur -61.1728 12.9143 -26.5507
ltibia 65.3161
lfoot -21.1601 0.968269
ltoes -2.7408
795
root 0.154171 14.7596 -1.58649 220.742 -85.6032 -202.519
lowerback 37.1724 -0.374994 -0.345241
upperback 17.9172 -3.13108 1.19544
thorax 1.36232 -2.6182 2.35901
lowerneck 8.13121 -7.78161 -1.57773
upperneck -33.8039 -7.44971 19.5425
head -11.391 -6.73348 8.81994
rclavicle -3.45885e-014 -3.18055e-015
rhumerus -18.8828 8.24057 -81.8517
rradius 69.1829
rwrist -10.95
rhand -24.6897 -9.29769
rfingers 7.12502
rthumb 1.81123 -39.2697
lclavicle -3.45885e-014 -3.18055e-015
lhumerus -12.4116 -4.70531 71.0638
lradius 77.1294
lwrist 24.5783
lhand -23.6629 9.4986
lfingers 7.12502
lthumb 2.80294 39.4599
rfemur -65.4603 -9.96802 21.0126
rtibia 72.6514
rfoot -23.241 -13.7096
rtoes -9.64032
lfemur -61.2264 12.9546 -26.4956
ltibia 65.2835
lfoot -21.0375 0.772381
ltoes -2.75231
796
root 0.15611 14.7632 -1.59849 220.972 -85.7323 -202.722
lowerback 37.0823 -0.451852 -0.244785
upperback 17.9152 -3.18516 1.24592
thorax 1.39049 -2.63901 2.37297
lowerneck 8.15401 -7.78637 -1.52135
upperneck -33.7379 -7.44146 19.5492
head -11.3746 -6.73316 8.80512
rclavicle 8.62725e-014 1.70955e-014
rhumerus -18.7944 8.23429 -81.8157
rradius 69.0263
rwrist -10.8751
rhand -24.6502 -9.3086
rfingers 7.12502
rthumb 1.84943 -39.2803
lclavicle 8.62725e-014 1.70955e-014
lhumerus -12.414 -4.8446 71.2447
lradius 77.333
lwrist 24.5112
lhand -23.8135 9.51298
lfingers 7.12502
lthumb 2.65743 39.4762
rfemur -65.4124 -10.0057 21.1345
rtibia 72.5528
rfoot -23.3403 -13.8105
rtoes -9.46538
lfemur -61.2874 13.0109 -26.4395
ltibia 65.2666
lfoot -20.9082 0.541306
ltoes -2.71451
797
root 0.157882 14.7666 -1.60947 221.185 -85.8423 -202.911
lowerback 36.9859 -0.514148 -0.163148
upperback 17.9159 -3.2284 1.29711
thorax 1.42402 -2.65618 2.39375
lowerneck 8.14728 -7.78976 -1.46887
upperneck -33.6591 -7.43389 19.5582
head -11.3465 -6.73208 8.7875
rclavicle -1.19271e-015 -1.96797e-014
rhumerus -18.7266 8.19761 -81.7674
rradius 68.8967
rwrist -10.8042
rhand -24.6072 -9.31809
rfingers 7.12502
rthumb 1.89095 -39.2895
lclavicle -1.19271e-015 -1.96797e-014
lhumerus -12.3969 -5.01902 71.4403
lradius 77.528
lwrist 24.4302
lhand -23.9191 9.51751
lfingers 7.12502
lthumb 2.55549 39.4819
rfemur -65.3755 -10.06 21.2534
rtibia 72.4639
rfoot -23.4256 -13.8842
rtoes -9.29872
lfemur -61.3515 13.0815 -26.3964
ltibia 65.2605
lfoot -20.7681 0.293959
ltoes -2.65776
798
root 0.159751 14.7706 -1.61925 221.572 -85.9381 -203.274
lowerback 36.8852 -0.569438 -0.0954188
upperback 17.917 -3.26762 1.34615
thorax 1.45944 -2.67212 2.41804
lowerneck 8.11335 -7.79069 -1.42601
upperneck -33.578 -7.42595 19.5712
head -11.3108 -6.73001 8.77037
rclavicle 1.74931e-014 2.50469e-014
rhumerus -18.6829 8.13657 -81.7062
rradius 68.7987
rwrist -10.7491
rhand -24.5698 -9.3149
rfingers 7.12502
rthumb 1.9271 -39.2859
lclavicle 1.74931e-014 2.50469e-014
lhumerus -12.3566 -5.22769 71.6451
lradius 77.7133
lwrist 24.3373
lhand -23.9767 9.50887
lfingers 7.12502
lthumb 2.49988 39.474
rfemur -65.3475 -10.1403 21.3572
rtibia 72.3798
rfoot -23.4951 -13.9296
rtoes -9.14514
lfemur -61.417 13.1515 -26.3768
ltibia 65.2567
lfoot -20.6129 0.0357967
ltoes -2.5912
